<svg width="78" height="78" viewBox="0 0 78 78" fill="none" xmlns="http://www.w3.org/2000/svg">
<path d="M4.69796 0L0 77.4L77.7256 72.702V4.69796L4.69796 0Z" fill="#FFE00E"/>
<path d="M38.1417 35.4898V40.932H25.1642V51.5838H18.8848V24.6055H38.9325V30.0477H25.1642V35.4898H38.1417Z" fill="black"/>
<path d="M53.8638 23.8594C59.0734 23.8594 62.1434 25.0222 64.7947 27.3014L61.6783 31.5343C60.0037 30.4179 57.8176 29.255 53.8638 29.255C48.2356 29.255 45.7238 33.0692 45.7238 38.0463C45.7238 43.0233 48.2356 46.8375 53.8638 46.8375C57.8176 46.8375 60.0503 45.7212 61.6783 44.5583L64.7947 48.7911C62.1434 51.0238 59.0734 52.2332 53.8638 52.2332C43.7237 52.2332 39.2583 45.5351 39.2583 37.9998C39.2583 30.5575 43.7237 23.8594 53.8638 23.8594Z" fill="black"/>
</svg>
